<svg width="745" height="256" viewBox="0 0 745 256" fill="none" xmlns="http://www.w3.org/2000/svg">
<path d="M134.029 2.24709V120.557H105.2V49.6046L78.7316 120.557H55.4662L28.8289 49.436V120.557H0V2.24709H34.0552L67.2675 84.1536L100.143 2.24709H134.029Z" fill="#548EF8"/>
<path d="M228.945 99.6586H184.775L177.694 120.557H147.516L190.338 2.24709H223.719L266.541 120.557H236.026L228.945 99.6586ZM221.528 77.4123L206.86 34.0996L192.361 77.4123H221.528Z" fill="#548EF8"/>
<path d="M312.566 120.557L337.18 75.8956H344.092V120.557H372.921V2.24709H324.536C315.207 2.24709 307.283 3.87623 300.765 7.13452C294.133 10.3928 289.188 14.887 285.929 20.6171C282.669 26.2348 281.04 32.5267 281.04 39.4926C281.04 47.3575 283.287 54.3796 287.783 60.5591C292.167 66.7386 298.685 71.1205 307.34 73.7046L280.028 120.557H312.566ZM344.092 55.5032H326.222C320.939 55.5032 317.006 54.2111 314.421 51.627C311.723 49.0428 310.374 45.3913 310.374 40.6724C310.374 36.1782 311.723 32.639 314.421 30.0549C317.006 27.4707 320.939 26.1786 326.222 26.1786H344.092V55.5032Z" fill="#548EF8"/>
<path d="M467.838 99.6586H423.667L416.586 120.557H386.408L429.23 2.24709H462.611L505.433 120.557H474.918L467.838 99.6586ZM460.42 77.4123L445.752 34.0996L431.253 77.4123H460.42Z" fill="#548EF8"/>
<path d="M547.749 2.24709V120.557H518.92V2.24709H547.749Z" fill="#548EF8"/>
<path d="M607.43 121.174C598.776 121.174 591.021 119.77 584.165 116.961C577.309 114.152 571.801 109.995 567.643 104.49C563.597 98.9844 561.461 92.3555 561.236 84.603H591.92C592.369 88.9849 593.887 92.3555 596.472 94.715C599.057 96.962 602.428 98.0856 606.587 98.0856C610.858 98.0856 614.23 97.1306 616.702 95.2205C619.175 93.1982 620.411 90.4455 620.411 86.9625C620.411 84.0413 619.4 81.6256 617.377 79.7156C615.466 77.8056 613.05 76.2326 610.127 74.9967C607.318 73.7608 603.271 72.3564 597.989 70.7834C590.346 68.424 584.108 66.0645 579.275 63.7051C574.443 61.3456 570.284 57.8626 566.8 53.2561C563.316 48.6496 561.573 42.6386 561.573 35.2232C561.573 24.2124 565.563 15.6173 573.543 9.43779C581.523 3.14593 591.92 0 604.733 0C617.77 0 628.279 3.14593 636.259 9.43779C644.239 15.6173 648.51 24.2686 649.072 35.3917H617.883C617.658 31.5716 616.253 28.5943 613.668 26.4595C611.083 24.2124 607.767 23.0889 603.721 23.0889C600.237 23.0889 597.427 24.0439 595.291 25.9539C593.156 27.7516 592.088 30.3919 592.088 33.8749C592.088 37.695 593.887 40.6724 597.483 42.8071C601.08 44.9418 606.699 47.2451 614.342 49.7169C621.985 52.3011 628.167 54.7729 632.887 57.1323C637.72 59.4918 641.879 62.9186 645.363 67.4128C648.847 71.907 650.589 77.6932 650.589 84.7716C650.589 91.5128 648.847 97.6362 645.363 103.142C641.991 108.647 637.046 113.029 630.527 116.287C624.008 119.545 616.309 121.174 607.43 121.174Z" fill="#548EF8"/>
<path d="M701.841 256C693.187 256 685.431 254.596 678.575 251.787C671.719 248.978 666.212 244.821 662.054 239.315C658.007 233.81 655.872 227.181 655.647 219.429H686.331C686.78 223.81 688.297 227.181 690.883 229.541C693.468 231.788 696.839 232.911 700.998 232.911C705.269 232.911 708.641 231.956 711.113 230.046C713.586 228.024 714.822 225.271 714.822 221.788C714.822 218.867 713.811 216.451 711.788 214.541C709.877 212.631 707.461 211.058 704.538 209.822C701.729 208.586 697.682 207.182 692.4 205.609C684.757 203.25 678.519 200.89 673.686 198.531C668.853 196.171 664.695 192.688 661.211 188.082C657.726 183.475 655.984 177.464 655.984 170.049C655.984 159.038 659.974 150.443 667.954 144.263C675.934 137.971 686.331 134.826 699.143 134.826C712.181 134.826 722.69 137.971 730.67 144.263C738.65 150.443 742.921 159.094 743.483 170.217H712.293C712.069 166.397 710.664 163.42 708.079 161.285C705.494 159.038 702.178 157.914 698.132 157.914C694.648 157.914 691.838 158.869 689.702 160.779C687.567 162.577 686.499 165.217 686.499 168.7C686.499 172.521 688.298 175.498 691.894 177.633C695.491 179.767 701.11 182.071 708.753 184.542C716.396 187.127 722.577 189.598 727.298 191.958C732.131 194.317 736.289 197.744 739.774 202.238C743.258 206.733 745 212.519 745 219.597C745 226.338 743.258 232.462 739.774 237.967C736.402 243.472 731.457 247.854 724.938 251.113C718.419 254.371 710.72 256 701.841 256Z" fill="#548EF8"/>
<path d="M312.06 136.736L336.675 181.397H343.587V136.736H372.416V255.045H324.03C314.702 255.045 306.778 253.416 300.259 250.158C293.628 246.899 288.683 242.405 285.423 236.675C282.164 231.057 280.534 224.765 280.534 217.799C280.534 209.935 282.782 202.912 287.278 196.733C291.661 190.553 298.18 186.172 306.834 183.587L279.522 136.736H312.06ZM343.587 201.789H325.716C320.434 201.789 316.5 203.081 313.915 205.665C311.217 208.249 309.869 211.901 309.869 216.62C309.869 221.114 311.217 224.653 313.915 227.237C316.5 229.821 320.434 231.113 325.716 231.113H343.587V201.789Z" fill="#548EF8"/>
<path d="M446.764 256C435.637 256 425.409 253.416 416.081 248.248C406.864 243.079 399.503 235.889 393.995 226.675C388.6 217.35 385.903 206.901 385.903 195.329C385.903 183.756 388.6 173.363 393.995 164.15C399.503 154.937 406.864 147.746 416.081 142.578C425.409 137.41 435.637 134.826 446.764 134.826C457.891 134.826 468.062 137.41 477.279 142.578C486.607 147.746 493.913 154.937 499.196 164.15C504.59 173.363 507.288 183.756 507.288 195.329C507.288 206.901 504.59 217.35 499.196 226.675C493.801 235.889 486.495 243.079 477.279 248.248C468.062 253.416 457.891 256 446.764 256ZM446.764 229.709C456.205 229.709 463.735 226.563 469.355 220.271C475.087 213.979 477.953 205.665 477.953 195.329C477.953 184.88 475.087 176.565 469.355 170.386C463.735 164.094 456.205 160.948 446.764 160.948C437.211 160.948 429.568 164.038 423.836 170.217C418.216 176.397 415.406 184.767 415.406 195.329C415.406 205.777 418.216 214.148 423.836 220.44C429.568 226.619 437.211 229.709 446.764 229.709Z" fill="#548EF8"/>
<path d="M581.636 256C570.509 256 560.281 253.416 550.953 248.248C541.736 243.079 534.375 235.889 528.867 226.675C523.472 217.35 520.775 206.901 520.775 195.329C520.775 183.756 523.472 173.363 528.867 164.15C534.375 154.937 541.736 147.746 550.953 142.578C560.281 137.41 570.509 134.826 581.636 134.826C592.763 134.826 602.935 137.41 612.151 142.578C621.48 147.746 628.785 154.937 634.068 164.15C639.463 173.363 642.16 183.756 642.16 195.329C642.16 206.901 639.463 217.35 634.068 226.675C628.673 235.889 621.367 243.079 612.151 248.248C602.935 253.416 592.763 256 581.636 256ZM581.636 229.709C591.077 229.709 598.607 226.563 604.227 220.271C609.959 213.979 612.825 205.665 612.825 195.329C612.825 184.88 609.959 176.565 604.227 170.386C598.607 164.094 591.077 160.948 581.636 160.948C572.083 160.948 564.44 164.038 558.708 170.217C553.088 176.397 550.278 184.767 550.278 195.329C550.278 205.777 553.088 214.148 558.708 220.44C564.44 226.619 572.083 229.709 581.636 229.709Z" fill="#548EF8"/>
</svg>
