<svg width="160" height="90" viewBox="0 0 160 90" fill="none" xmlns="http://www.w3.org/2000/svg">
<path d="M34.7168 22C40.3961 22.0001 45 26.7065 45 32.5117V57.4883C44.9999 63.2937 40.3961 67.9999 34.7168 68H10.2832C4.60414 68 6.36285e-05 63.2938 0 57.4883V32.5117C0 26.7064 4.6041 22 10.2832 22H34.7168ZM28 40C25.2386 40 23 42.4624 23 45.5C23 48.5376 25.2386 51 28 51C30.7614 51 33 48.5376 33 45.5C33 42.4624 30.7614 40 28 40ZM17.5 30C14.4624 30.0001 12 32.2386 12 35C12 37.675 14.3109 39.8591 17.2168 39.9932L17.5 40C14.4624 40.0001 12 42.4624 12 45.5C12.0001 48.4425 14.3109 50.8457 17.2168 50.9932L17.5 51C14.4624 51.0001 12 53.2386 12 56C12 58.7614 14.4624 60.9999 17.5 61C20.5376 61 23 58.7614 23 56V40H28C30.7614 40 33 37.7615 33 35C32.9999 32.2386 30.7614 30 28 30H17.5Z" fill="#040A1E"/>
<path d="M150.16 60C148.792 60 147.564 59.7365 146.475 59.2098C145.414 58.6831 144.563 57.976 143.921 57.0888C143.307 56.1739 143 55.1202 143 53.928C143 52.3756 143.503 51.1141 144.507 50.1435C145.512 49.1732 146.95 48.5079 148.82 48.1475L153.719 47.1492C154.696 46.9552 155.366 46.6502 155.729 46.2343C156.092 45.8184 156.273 45.2086 156.273 44.4045L156.776 49.2702L149.741 50.7674C148.792 50.9614 148.053 51.308 147.522 51.807C147.02 52.3063 146.769 52.9993 146.769 53.8864C146.769 54.8016 147.117 55.5361 147.815 56.0908C148.541 56.6452 149.518 56.9226 150.746 56.9226C151.751 56.9226 152.672 56.7006 153.51 56.2571C154.375 55.8135 155.045 55.2034 155.52 54.4273C156.022 53.6232 156.273 52.7083 156.273 51.6823V44.4045C156.273 43.4062 155.911 42.6301 155.185 42.0755C154.487 41.4933 153.524 41.2021 152.296 41.2021C150.732 41.2021 149.532 41.5903 148.695 42.3666C147.857 43.143 147.369 44.238 147.229 45.6522L143.544 45.1531C143.684 43.6836 144.13 42.4221 144.884 41.3686C145.638 40.2872 146.643 39.4555 147.899 38.8733C149.155 38.2909 150.649 38 152.379 38C154.836 38 156.72 38.6237 158.032 39.8714C159.344 41.119 160 42.7271 160 44.6954V59.3761H156.357V56.6729C155.994 57.5878 155.254 58.378 154.138 59.0435C153.049 59.6811 151.723 60 150.16 60Z" fill="#040A1E"/>
<path d="M113 60V38.6419H116.631V41.0389C116.909 40.2114 117.521 39.498 118.467 38.8988C119.413 38.2994 120.512 38 121.764 38C122.988 38 124.115 38.2709 125.144 38.813C126.174 39.3554 126.842 40.1686 127.148 41.2528C127.509 40.2542 128.177 39.4694 129.151 38.8988C130.153 38.2994 131.265 38 132.49 38C134.604 38 136.218 38.6276 137.331 39.8832C138.444 41.1387 139 42.9649 139 45.3619V60H135.286V45.8755C135.286 44.4486 134.98 43.3787 134.368 42.6652C133.783 41.9235 132.921 41.5525 131.78 41.5525C130.528 41.5525 129.554 42.009 128.859 42.9221C128.191 43.8067 127.857 45.105 127.857 46.8171V60H124.143V45.8755C124.143 44.4486 123.837 43.3787 123.225 42.6652C122.64 41.9235 121.778 41.5525 120.637 41.5525C119.385 41.5525 118.411 42.009 117.716 42.9221C117.048 43.8067 116.714 45.105 116.714 46.8171V60H113Z" fill="#040A1E"/>
<path d="M98.7703 68C96.1927 68 94.0999 67.3805 92.4922 66.1413C90.8846 64.902 89.8593 63.1729 89.4159 60.9539L93.0329 60.1325C93.3377 61.5446 93.9891 62.6398 94.9868 63.418C95.9847 64.2249 97.2458 64.6284 98.7703 64.6284C100.599 64.6284 101.972 64.1383 102.886 63.1585C103.829 62.2075 104.3 60.7811 104.3 58.8789V55.4641C103.884 56.5303 103.108 57.3948 101.972 58.0575C100.863 58.7205 99.6156 59.0519 98.2297 59.0519C96.4003 59.0519 94.7929 58.6197 93.4071 57.7551C92.0212 56.8617 90.9401 55.6225 90.1642 54.0374C89.388 52.4525 89 50.6223 89 48.5476C89 46.4438 89.388 44.5994 90.1642 43.0143C90.9401 41.4292 92.0073 40.2046 93.3654 39.34C94.7513 38.4467 96.3727 38 98.2297 38C99.6156 38 100.877 38.3312 102.013 38.9942C103.177 39.6281 103.967 40.4206 104.383 41.3716V38.6483H108V58.8789C108 60.7811 107.64 62.4091 106.919 63.7638C106.198 65.1471 105.145 66.1989 103.759 66.9194C102.401 67.6397 100.738 68 98.7703 68ZM98.687 55.6369C100.461 55.6369 101.875 54.9883 102.928 53.6915C104.009 52.3946 104.549 50.6802 104.549 48.5476C104.549 46.3862 104.009 44.657 102.928 43.3602C101.847 42.0633 100.433 41.4148 98.687 41.4148C96.9131 41.4148 95.4858 42.0633 94.4047 43.3602C93.3516 44.657 92.825 46.3862 92.825 48.5476C92.825 50.6802 93.3654 52.3946 94.4464 53.6915C95.5275 54.9883 96.941 55.6369 98.687 55.6369Z" fill="#040A1E"/>
<path d="M81.0438 59.9752V38.7659H84.9562V60L81.0438 59.9752ZM81 36.0426V30H85V36.0426H81Z" fill="#040A1E"/>
<path d="M60 60V30H63.8542V60H60ZM60.7791 47.3192V43.702H76.4829V47.3192H60.7791ZM60.7791 33.6595V30H78V33.6595H60.7791Z" fill="#040A1E"/>
</svg>
