<svg width="160" height="90" viewBox="0 0 160 90" fill="none" xmlns="http://www.w3.org/2000/svg">
<g clip-path="url(#clip0_115_353)">
<path d="M14.3376 38H0V52L14.3376 66V52H28.6753L14.3376 38H28.6753V24H0L14.3376 38Z" fill="#040A1E"/>
<path d="M50.4764 56.5811H55.2636V46.5089H66.67V42.5889H55.2636V36.2655H67.5223V32.2522H50.4764V56.5811Z" fill="#040A1E"/>
<path d="M78.1958 39.1899C77.0329 39.1899 76.1089 39.4466 75.4159 39.9599C74.723 40.4732 74.2211 41.2355 73.8946 42.2466H73.8468V39.3377H69.434V56.581H74.014V47.0299C74.014 46.1355 74.1654 45.3966 74.476 44.7977C74.7867 44.2066 75.2009 43.7632 75.7425 43.4677C76.2842 43.1721 76.8816 43.0243 77.5507 43.0243C77.9728 43.0243 78.3791 43.0321 78.7694 43.0555C79.1597 43.0788 79.4384 43.1021 79.6057 43.1177V39.2444C79.4305 39.2366 79.2234 39.221 78.9844 39.2055C78.7534 39.1899 78.4906 39.1821 78.1958 39.1821V39.1899Z" fill="#040A1E"/>
<path d="M93.5769 41.7255H93.5291C93.1707 41.1189 92.7246 40.6133 92.191 40.2089C91.6573 39.8044 91.0599 39.5011 90.3908 39.2911C89.7297 39.0811 89.0128 38.98 88.2402 38.98C86.7347 38.98 85.4045 39.3611 84.2575 40.1155C83.1105 40.87 82.2104 41.92 81.5732 43.2655C80.9359 44.6111 80.6093 46.1666 80.6093 47.94C80.6093 49.7133 80.928 51.3078 81.5652 52.6611C82.2024 54.0144 83.0945 55.0644 84.2415 55.8111C85.3886 56.5578 86.7347 56.9389 88.272 56.9389C89.0447 56.9389 89.7615 56.83 90.4227 56.6044C91.0838 56.3789 91.6812 56.0522 92.2149 55.6244C92.7485 55.1966 93.1787 54.6522 93.5291 53.9989H93.5929V56.5811H98.0614V39.3378H93.5769V41.7255ZM93.2185 50.7555C92.8521 51.5489 92.3503 52.1633 91.6971 52.5989C91.044 53.0344 90.2793 53.2522 89.3951 53.2522C88.5667 53.2522 87.8419 53.0422 87.2206 52.63C86.5993 52.2178 86.1134 51.6111 85.7629 50.8255C85.4204 50.04 85.2452 49.0755 85.2452 47.94C85.2452 46.8044 85.4204 45.8322 85.7629 45.0466C86.1054 44.2611 86.5913 43.6622 87.2206 43.25C87.8499 42.8378 88.5667 42.6278 89.3951 42.6278C90.2793 42.6278 91.044 42.8455 91.6971 43.2811C92.3503 43.7166 92.8601 44.3311 93.2185 45.1244C93.5849 45.9178 93.7601 46.8589 93.7601 47.9322C93.7601 49.0055 93.5769 49.9466 93.2185 50.74V50.7555Z" fill="#040A1E"/>
<path d="M124.865 39.7034C123.973 39.2289 122.969 38.9956 121.854 38.9956C120.874 38.9956 119.974 39.1667 119.162 39.5012C118.349 39.8356 117.656 40.3178 117.091 40.9478C116.724 41.3523 116.438 41.8034 116.214 42.2934C115.912 41.4145 115.386 40.6912 114.629 40.1234C113.634 39.3689 112.463 38.9956 111.117 38.9956C110.288 38.9956 109.508 39.1434 108.759 39.4467C108.01 39.7423 107.357 40.2089 106.791 40.8234C106.385 41.2667 106.051 41.7956 105.78 42.4023V39.3378H101.367V56.5812H105.947V46.3378C105.947 45.5523 106.098 44.8912 106.401 44.3545C106.704 43.8178 107.11 43.4056 107.612 43.1334C108.122 42.8534 108.671 42.7134 109.277 42.7134C110.193 42.7134 110.933 42.9856 111.499 43.5378C112.065 44.09 112.351 44.8289 112.351 45.7467V56.5734H116.78V46.0889C116.78 45.4278 116.915 44.8367 117.178 44.3234C117.441 43.81 117.823 43.4134 118.309 43.1334C118.795 42.8534 119.377 42.7056 120.054 42.7056C120.914 42.7056 121.647 42.9623 122.26 43.4834C122.874 43.9967 123.176 44.8056 123.176 45.91V56.5734H127.74V45.1712C127.74 43.8334 127.477 42.7056 126.96 41.78C126.442 40.8623 125.733 40.1623 124.841 39.6878L124.865 39.7034Z" fill="#040A1E"/>
<path d="M145.033 41.4456C144.284 40.6523 143.376 40.0379 142.333 39.6023C141.281 39.1668 140.111 38.949 138.82 38.949C137.147 38.949 135.666 39.3379 134.383 40.1079C133.093 40.8779 132.089 41.9512 131.357 43.3123C130.624 44.6734 130.257 46.229 130.257 47.979C130.257 49.729 130.616 51.269 131.325 52.6223C132.042 53.9756 133.053 55.0412 134.36 55.8112C135.666 56.5812 137.211 56.9701 138.987 56.9701C140.389 56.9701 141.672 56.7212 142.835 56.2312C143.998 55.7412 144.953 55.0645 145.718 54.2012C146.483 53.3379 146.977 52.3345 147.2 51.2068H142.97C142.811 51.6656 142.564 52.0701 142.213 52.4201C141.863 52.7701 141.433 53.0501 140.907 53.2445C140.381 53.439 139.784 53.5401 139.115 53.5401C138.175 53.5401 137.386 53.3456 136.733 52.949C136.08 52.5601 135.578 52.0079 135.236 51.3001C134.925 50.6623 134.758 49.9234 134.726 49.099H147.375V47.8934C147.375 46.579 147.168 45.3734 146.762 44.2768C146.355 43.1801 145.774 42.239 145.025 41.4456H145.033ZM134.766 46.1512C134.837 45.5445 134.989 44.9923 135.236 44.5101C135.578 43.8412 136.064 43.3201 136.693 42.9545C137.323 42.589 138.063 42.4101 138.908 42.4101C139.752 42.4101 140.525 42.589 141.146 42.9545C141.767 43.3201 142.253 43.8334 142.596 44.5101C142.843 44.9923 142.994 45.5445 143.066 46.1512H134.774H134.766Z" fill="#040A1E"/>
<path d="M159.379 39.2133C159.148 39.1977 158.885 39.1899 158.59 39.1899C157.427 39.1899 156.503 39.4466 155.81 39.9599C155.117 40.4733 154.615 41.2355 154.289 42.2466H154.241V39.3377H149.828V56.5811H154.408V47.0299C154.408 46.1355 154.56 45.3966 154.87 44.7977C155.173 44.2066 155.595 43.7633 156.129 43.4677C156.663 43.1722 157.268 43.0244 157.937 43.0244C158.359 43.0244 158.765 43.0322 159.156 43.0555C159.546 43.0788 159.825 43.1022 159.992 43.1177V39.2444C159.817 39.2366 159.61 39.2211 159.371 39.2055L159.379 39.2133Z" fill="#040A1E"/>
</g>
<defs>
<clipPath id="clip0_115_353">
<rect width="160" height="42" fill="white" transform="translate(0 24)"/>
</clipPath>
</defs>
</svg>
