<svg width="160" height="90" viewBox="0 0 160 90" fill="none" xmlns="http://www.w3.org/2000/svg">
<g clip-path="url(#clip0_115_354)">
<mask id="mask0_115_354" style="mask-type:luminance" maskUnits="userSpaceOnUse" x="0" y="25" width="160" height="41">
<path d="M159.788 25H0V65.7377H159.788V25Z" fill="white"/>
</mask>
<g mask="url(#mask0_115_354)">
<path d="M20.8986 46.5971C18.2173 46.5971 16.1132 47.6683 14.6338 49.7884C14.1273 48.8132 13.3636 47.9987 12.4274 47.4354C11.4911 46.8722 10.419 46.582 9.32964 46.5971C8.28866 46.562 7.25355 46.7685 6.30374 47.2006C5.3539 47.6328 4.51459 48.2793 3.85019 49.0903V48.721C3.84266 48.2022 3.63548 47.7068 3.27264 47.3399C2.90981 46.973 2.41988 46.7635 1.90681 46.7559C1.39654 46.7618 0.909357 46.9719 0.551954 47.3402C0.194553 47.7084 -0.00393391 48.205 -3.51853e-05 48.721V63.6139C0.0215894 64.1159 0.234055 64.5901 0.593061 64.9377C0.952063 65.2853 1.42989 65.4792 1.92691 65.4792C2.42392 65.4792 2.90174 65.2853 3.26075 64.9377C3.61975 64.5901 3.83222 64.1159 3.85384 63.6139V53.3196C4.7269 51.8717 6.04562 50.2538 8.43466 50.2538C10.6922 50.2538 11.5726 51.362 11.5726 54.2578V63.6324C11.5942 64.1343 11.8066 64.6086 12.1657 64.9562C12.5247 65.3038 13.0025 65.4977 13.4995 65.4977C13.9965 65.4977 14.4743 65.3038 14.8333 64.9562C15.1924 64.6086 15.4048 64.1343 15.4264 63.6324V53.3196C16.2995 51.8717 17.6182 50.2538 20.0073 50.2538C22.2648 50.2538 23.1452 51.362 23.1452 54.2578V63.6324C23.1668 64.1343 23.3792 64.6086 23.7383 64.9562C24.0973 65.3038 24.5751 65.4977 25.0721 65.4977C25.5691 65.4977 26.0469 65.3038 26.406 64.9562C26.765 64.6086 26.9774 64.1343 26.999 63.6324V53.6336C26.9954 50.2428 25.0995 46.5971 20.8986 46.5971Z" fill="#040A1E"/>
<path d="M39.3024 46.597C37.2103 46.5912 35.1401 47.0264 33.2238 47.875C32.89 48.0006 32.6031 48.228 32.4028 48.5259C32.2025 48.8237 32.0988 49.1771 32.106 49.5372C32.1016 49.7572 32.1407 49.976 32.221 50.1806C32.3013 50.3852 32.4212 50.5716 32.5736 50.7288C32.726 50.886 32.9079 51.0109 33.1086 51.0961C33.3093 51.1813 33.5248 51.2252 33.7425 51.2252C33.9317 51.2189 34.1194 51.1891 34.3014 51.1365C35.7287 50.6092 37.2348 50.3331 38.7544 50.3202C41.7316 50.3202 42.9626 51.4283 42.9882 54.1654H39.2001C34.0275 54.1654 30.937 56.4074 30.937 60.1602C30.937 63.8207 33.9361 65.7377 36.8987 65.7377C39.1248 65.7994 41.2962 65.0315 42.9992 63.5806V63.6323C43.0207 64.1343 43.2333 64.6086 43.5924 64.9562C43.9511 65.3037 44.4289 65.4976 44.9261 65.4976C45.4233 65.4976 45.9011 65.3037 46.2598 64.9562C46.6189 64.6086 46.8315 64.1343 46.8531 63.6323V53.8071C46.8458 50.2168 44.5115 46.597 39.3024 46.597ZM38.0677 62.2213C35.8941 62.2213 34.78 61.4124 34.78 59.813C34.78 59.2257 34.78 57.438 39.5983 57.438H42.9992V59.8426C41.98 60.9655 40.1279 62.2213 38.0677 62.2213Z" fill="#040A1E"/>
<path d="M54.3782 39.6528H54.1699C53.0017 39.6528 52.0549 40.6103 52.0549 41.7915V41.9318C52.0549 43.113 53.0017 44.0705 54.1699 44.0705H54.3782C55.5464 44.0705 56.4932 43.113 56.4932 41.9318V41.7915C56.4932 40.6103 55.5464 39.6528 54.3782 39.6528Z" fill="#040A1E"/>
<path d="M54.2394 46.7706C53.9855 46.7701 53.7342 46.8208 53.5 46.9197C53.2658 47.0187 53.0536 47.164 52.8757 47.347C52.6974 47.53 52.5575 47.7471 52.4637 47.9856C52.3698 48.224 52.3241 48.479 52.3289 48.7356V63.6287C52.3504 64.1306 52.563 64.6049 52.9221 64.9525C53.2808 65.3 53.7586 65.494 54.2558 65.494C54.753 65.494 55.2308 65.3 55.5895 64.9525C55.9486 64.6049 56.1612 64.1306 56.1827 63.6287V48.7209C56.1831 48.4634 56.1331 48.2083 56.0355 47.9705C55.938 47.7327 55.7944 47.5169 55.6136 47.3355C55.4332 47.1541 55.2184 47.0108 54.9824 46.9138C54.7468 46.8168 54.494 46.7682 54.2394 46.7706Z" fill="#040A1E"/>
<path d="M63.9928 39.1173C63.7389 39.1167 63.4876 39.1674 63.2534 39.2664C63.0193 39.3654 62.807 39.5107 62.6291 39.6937C62.4509 39.8767 62.311 40.0938 62.2171 40.3322C62.1232 40.5707 62.0775 40.8257 62.0823 41.0823V63.6139C62.1038 64.1158 62.3164 64.5901 62.6755 64.9377C63.0342 65.2852 63.5121 65.4792 64.0092 65.4792C64.506 65.4792 64.9842 65.2852 65.3429 64.9377C65.702 64.5901 65.9146 64.1158 65.9362 63.6139V41.0823C65.9387 40.8236 65.8901 40.5669 65.7933 40.3274C65.6965 40.0879 65.5533 39.8703 65.3725 39.6873C65.1913 39.5043 64.9762 39.3597 64.7394 39.2618C64.5024 39.1639 64.2485 39.1148 63.9928 39.1173Z" fill="#040A1E"/>
<path d="M79.2366 46.5969C76.4896 46.5969 74.2357 47.6275 72.7087 49.5814C71.39 51.2694 70.6631 53.6076 70.6631 56.1673C70.6631 62.1585 74.1224 65.7376 79.9197 65.7376C83.1014 65.7376 84.6686 64.9989 86.1115 64.1604C86.4169 64.0145 86.6777 63.7885 86.8673 63.5059C87.0569 63.2233 87.1679 62.8946 87.1891 62.5537C87.1895 62.3243 87.1449 62.0968 87.0572 61.8852C86.9696 61.6735 86.841 61.4816 86.6788 61.3209C86.517 61.1602 86.3248 61.0338 86.1137 60.9493C85.9029 60.8648 85.6771 60.8238 85.4503 60.8287C85.1774 60.8213 84.9075 60.8835 84.6649 61.0097C83.2892 61.7394 81.7498 62.0957 80.1973 62.044C76.9973 62.044 75.0832 60.5258 74.6083 57.6448H85.8302C86.0856 57.656 86.3405 57.614 86.5791 57.5213C86.8176 57.4286 87.035 57.2873 87.2172 57.1061C87.3995 56.9249 87.5431 56.7077 87.6388 56.468C87.7345 56.2283 87.7802 55.9713 87.7736 55.713C87.7736 49.4595 83.3498 46.5969 79.2366 46.5969ZM79.2366 50.0099C80.8293 50.0099 83.5361 50.9333 83.9197 54.3389H74.5864C74.9297 51.3507 77.1288 50.0099 79.2366 50.0099Z" fill="#040A1E"/>
<path d="M101.111 46.5969H100.939C99.1124 46.5969 97.4284 47.4686 95.9124 49.1825V48.7208C95.9047 48.202 95.6976 47.7066 95.3349 47.3397C94.9721 46.9729 94.4819 46.7634 93.969 46.7558C93.458 46.7606 92.9699 46.9703 92.612 47.3387C92.2536 47.7071 92.0545 48.2042 92.0585 48.7208V63.6138C92.0801 64.1157 92.2927 64.59 92.6518 64.9376C93.0105 65.2852 93.4883 65.4791 93.9855 65.4791C94.4826 65.4791 94.9605 65.2852 95.3192 64.9376C95.6783 64.59 95.8909 64.1157 95.9124 63.6138V53.1902C97.1508 51.384 98.9079 50.3903 100.869 50.3903H101.041C101.291 50.4065 101.541 50.3707 101.776 50.2852C102.011 50.1996 102.227 50.0662 102.409 49.893C102.591 49.7199 102.736 49.5108 102.835 49.2787C102.934 49.0465 102.985 48.7963 102.985 48.5435C102.992 48.2903 102.948 48.0384 102.857 47.8025C102.766 47.5666 102.629 47.3515 102.454 47.1701C102.28 46.9886 102.071 46.8444 101.84 46.7459C101.609 46.6475 101.361 46.5968 101.111 46.5969Z" fill="#040A1E"/>
<path d="M154.309 25H115.43C113.977 25 112.583 25.5837 111.555 26.6228C110.528 27.6618 109.951 29.0711 109.951 30.5405V65.7377L117.498 58.1805H154.309C155.028 58.1805 155.741 58.0371 156.406 57.7587C157.07 57.4803 157.675 57.0722 158.183 56.5577C158.692 56.0432 159.096 55.4324 159.371 54.7602C159.646 54.088 159.788 53.3675 159.788 52.6399V30.5405C159.788 29.0711 159.211 27.6618 158.183 26.6228C157.156 25.5837 155.762 25 154.309 25ZM121.593 49.829C121.593 50.2209 121.439 50.5967 121.165 50.8737C120.891 51.1508 120.519 51.3065 120.132 51.3065C119.744 51.3065 119.372 51.1508 119.099 50.8737C118.824 50.5967 118.67 50.2209 118.67 49.829V34.1308C118.67 33.7389 118.824 33.3632 119.099 33.0861C119.372 32.809 119.744 32.6533 120.132 32.6533C120.519 32.6533 120.891 32.809 121.165 33.0861C121.439 33.3632 121.593 33.7389 121.593 34.1308V49.829ZM128.387 49.829C128.387 50.2209 128.233 50.5967 127.959 50.8737C127.685 51.1508 127.314 51.3065 126.926 51.3065C126.539 51.3065 126.167 51.1508 125.893 50.8737C125.619 50.5967 125.465 50.2209 125.465 49.829V39.4497C125.465 39.0579 125.619 38.6821 125.893 38.405C126.167 38.1279 126.539 37.9723 126.926 37.9723C127.314 37.9723 127.685 38.1279 127.959 38.405C128.233 38.6821 128.387 39.0579 128.387 39.4497V49.829ZM128.603 34.7107C128.603 35.1359 128.436 35.5436 128.139 35.8443C127.841 36.1449 127.438 36.3138 127.017 36.3138H126.875C126.454 36.3138 126.051 36.1449 125.754 35.8443C125.457 35.5436 125.29 35.1359 125.29 34.7107V34.6147C125.29 34.1895 125.457 33.7818 125.754 33.4812C126.051 33.1805 126.454 33.0116 126.875 33.0116H127.017C127.438 33.0116 127.841 33.1805 128.139 33.4812C128.436 33.7818 128.603 34.1895 128.603 34.6147V34.7107ZM138.879 50.9371C138.206 51.2526 137.472 51.414 136.731 51.4099C134.206 51.4099 132.873 50.1799 132.873 47.8492V40.7204H131.54C131.432 40.7229 131.324 40.7032 131.223 40.6626C131.123 40.6219 131.031 40.5611 130.954 40.4839C130.878 40.4065 130.817 40.3144 130.776 40.2128C130.736 40.1113 130.716 40.0025 130.718 39.893C130.721 39.7584 130.754 39.6263 130.814 39.5061C130.874 39.386 130.96 39.2809 131.065 39.1986L134.298 35.9998C134.382 35.9049 134.483 35.8277 134.597 35.7725C134.71 35.7174 134.833 35.6854 134.959 35.6785C135.069 35.678 135.178 35.6998 135.28 35.7427C135.381 35.7856 135.473 35.8487 135.55 35.9283C135.627 36.0079 135.688 36.1024 135.728 36.206C135.768 36.3096 135.787 36.4204 135.785 36.5317V38.0978H138.122C138.467 38.0978 138.797 38.2362 139.041 38.4825C139.284 38.7287 139.421 39.0627 139.421 39.4109C139.421 39.7592 139.284 40.0932 139.041 40.3395C138.797 40.5857 138.467 40.7241 138.122 40.7241H135.785V47.6608C135.785 48.6655 136.278 48.7431 136.975 48.7431C137.265 48.7445 137.553 48.7034 137.83 48.6212C138.019 48.5629 138.214 48.5306 138.411 48.5251C138.735 48.5299 139.044 48.6622 139.274 48.8939C139.503 49.1257 139.634 49.4385 139.638 49.7662C139.638 50.015 139.566 50.2583 139.431 50.4663C139.296 50.6743 139.104 50.8379 138.879 50.9371ZM147.839 48.6286C148.903 48.6639 149.958 48.4196 150.901 47.9194C151.086 47.8241 151.292 47.7771 151.5 47.7827C151.672 47.7793 151.843 47.8106 152.004 47.875C152.164 47.9394 152.31 48.0354 152.433 48.1575C152.556 48.2796 152.654 48.4253 152.721 48.5861C152.788 48.7469 152.822 48.9196 152.822 49.094C152.807 49.351 152.724 49.5993 152.582 49.813C152.44 50.0267 152.244 50.198 152.015 50.3092C150.996 50.8965 149.892 51.4173 147.631 51.4173C143.522 51.4173 141.056 48.8834 141.056 44.6394C141.056 39.6344 144.343 37.8577 147.138 37.8577C151.302 37.8577 153.198 41.2079 153.198 44.3217C153.203 44.5163 153.169 44.7099 153.097 44.8905C153.025 45.0711 152.918 45.2348 152.781 45.3716C152.644 45.5084 152.48 45.6153 152.301 45.6856C152.121 45.756 151.93 45.7884 151.737 45.7807H144.066C144.446 47.6497 145.743 48.6286 147.839 48.6286Z" fill="#040A1E"/>
<path d="M147.185 40.4655C146.415 40.4514 145.667 40.7306 145.09 41.2479C144.514 41.7651 144.151 42.4826 144.073 43.258H150.323C150.241 42.4797 149.873 41.761 149.292 41.2439C148.711 40.7269 147.959 40.4491 147.185 40.4655Z" fill="#040A1E"/>
</g>
</g>
<defs>
<clipPath id="clip0_115_354">
<rect width="160" height="41" fill="white" transform="translate(0 25)"/>
</clipPath>
</defs>
</svg>
