<svg width="160" height="90" viewBox="0 0 160 90" fill="none" xmlns="http://www.w3.org/2000/svg">
<g clip-path="url(#clip0_115_390)">
<path d="M20.9236 46.7454C18.2533 46.7454 16.1317 47.8233 14.6319 49.9421C13.6077 47.9348 11.5592 46.7082 9.32785 46.7454C7.20622 46.671 5.19433 47.6003 3.84088 49.273V48.9013C3.84088 47.8233 2.96296 46.9312 1.90215 46.9312C0.841335 46.9312 0 47.8233 0 48.9013V63.8813C0.0365798 64.9593 0.951074 65.8143 2.01189 65.7399C2.99954 65.7027 3.8043 64.885 3.84088 63.8813V53.5105C4.71879 52.0609 6.03566 50.4253 8.41335 50.4253C10.6813 50.4253 11.5592 51.5405 11.5592 54.4398V63.8813C11.5958 64.9593 12.5103 65.8143 13.5711 65.7399C14.5588 65.7027 15.3635 64.885 15.4001 63.8813V53.5105C16.278 52.0609 17.5949 50.4253 19.9726 50.4253C22.2405 50.4253 23.1184 51.5405 23.1184 54.4398V63.8813C23.155 64.9593 24.0695 65.8143 25.1303 65.7399C26.118 65.7027 26.9227 64.885 26.9593 63.8813V53.8079C27.0325 50.3881 25.1303 46.7454 20.9236 46.7454Z" fill="black"/>
<path d="M39.3599 46.7451C37.2748 46.7451 35.1898 47.1912 33.2876 48.0461C32.5926 48.3063 32.1536 48.9754 32.1536 49.7188C32.1536 50.6481 32.8487 51.3915 33.7632 51.4287H33.7997C33.9826 51.4287 34.1655 51.3915 34.3484 51.3544C35.775 50.834 37.2748 50.5366 38.8112 50.5366C41.7741 50.5366 43.0178 51.6517 43.0544 54.4024H39.2501C34.0924 54.3652 30.9831 56.5955 30.9831 60.387C30.9831 64.067 33.9826 65.9999 36.9456 65.9999C39.177 66.0742 41.3352 65.2936 43.0544 63.8439V63.8811C43.091 64.9591 44.0055 65.814 45.0663 65.7397C46.054 65.7025 46.8587 64.8847 46.8953 63.8811V53.9935C46.8953 50.3879 44.5542 46.7451 39.3599 46.7451ZM38.1162 62.4686C35.9579 62.4686 34.824 61.6508 34.824 60.0525C34.824 59.4577 34.824 57.6735 39.6525 57.6735H43.0544V60.0896C42.0302 61.2048 40.1646 62.4686 38.1162 62.4686Z" fill="black"/>
<path d="M54.2478 39.7571H54.4673C55.6378 39.7571 56.5889 40.7235 56.5889 41.913V42.0617C56.5889 43.2512 55.6378 44.2176 54.4673 44.2176H54.2478C53.0773 44.2176 52.1262 43.2512 52.1262 42.0617V41.913C52.1262 40.7235 53.0773 39.7571 54.2478 39.7571Z" fill="black"/>
<path d="M54.321 46.894C53.2602 46.894 52.4189 47.749 52.4189 48.827V48.8641V63.8442C52.4554 64.9221 53.3699 65.7771 54.4307 65.7027C55.4184 65.6656 56.2232 64.8478 56.2597 63.8442V48.8641C56.2597 47.7862 55.4184 46.894 54.321 46.894Z" fill="black"/>
<path d="M64.0878 39.1995C63.027 39.1995 62.1856 40.0544 62.1856 41.1324V41.1695V63.8441C62.2222 64.922 63.1367 65.777 64.1975 65.7026C65.1852 65.6655 65.9899 64.8477 66.0265 63.8441V41.1695C66.0265 40.0916 65.1852 39.1995 64.1244 39.1995C64.0878 39.1995 64.0878 39.1995 64.0878 39.1995Z" fill="black"/>
<path d="M79.3416 46.7451C76.5981 46.7451 74.3301 47.7859 72.7938 49.756C71.4769 51.4659 70.7453 53.8077 70.7453 56.3725C70.7453 62.3943 74.2204 65.9999 80 65.9999C83.1824 65.9999 84.7554 65.2565 86.2186 64.4015C86.8404 64.1041 87.2428 63.4722 87.3159 62.766C87.3159 61.7995 86.5478 61.0189 85.6333 61.0189H85.5967C85.3406 61.0189 85.048 61.0561 84.8285 61.2048C83.4385 61.9482 81.9021 62.2827 80.3658 62.2456C77.1468 62.2456 75.2446 60.7215 74.7691 57.8222H85.9625C86.9867 57.8594 87.8646 57.0416 87.9012 56.0008C87.9012 55.9636 87.9012 55.9264 87.9012 55.8521C87.9012 49.6073 83.4751 46.7451 79.3416 46.7451ZM79.3416 50.1649C80.9511 50.1649 83.658 51.0942 84.0238 54.5139H74.6593C75.0251 51.5031 77.2199 50.1649 79.3416 50.1649Z" fill="black"/>
<path d="M101.253 46.7452H101.07C99.241 46.7452 97.5583 47.6373 96.0219 49.3472V48.9011C96.0219 47.8231 95.144 46.931 94.0832 46.931C93.0224 46.931 92.1445 47.8231 92.1811 48.9011V63.8812C92.2176 64.9591 93.1321 65.8141 94.193 65.7397C95.1806 65.7026 95.9854 64.8848 96.0219 63.8812V53.3617C97.2657 51.5403 99.0215 50.5367 100.997 50.5367H101.18C102.204 50.611 103.045 49.8304 103.118 48.7896C103.118 48.7524 103.118 48.7153 103.118 48.6781C103.155 47.6373 102.314 46.7452 101.289 46.708C101.289 46.7452 101.253 46.7452 101.253 46.7452Z" fill="black"/>
<path d="M154.513 25H115.592C112.556 25 110.105 27.4905 110.105 30.5757V66L117.677 58.3799H154.55C157.586 58.3799 160.037 55.8894 160.037 52.8042V30.5757C160 27.4905 157.549 25 154.513 25ZM121.774 49.9791C121.774 50.7969 121.116 51.466 120.311 51.466C119.506 51.466 118.848 50.7969 118.848 49.9791V34.1813C118.848 33.3636 119.506 32.6945 120.311 32.6945C121.116 32.6945 121.774 33.3636 121.774 34.1813V49.9791ZM128.578 49.9791C128.578 50.7969 127.92 51.466 127.115 51.466C126.31 51.466 125.652 50.7969 125.652 49.9791V39.534C125.652 38.7162 126.31 38.0471 127.115 38.0471C127.92 38.0471 128.578 38.7162 128.578 39.534V49.9791ZM128.761 34.7761C128.761 35.6682 128.066 36.3744 127.188 36.3744H127.042C126.164 36.3744 125.469 35.6682 125.469 34.7761V34.6646C125.469 33.7724 126.164 33.0662 127.042 33.0662H127.188C128.066 33.0662 128.761 33.7724 128.761 34.6646V34.7761ZM139.076 51.0943C138.418 51.4288 137.686 51.5775 136.918 51.5775C134.394 51.5775 133.041 50.3509 133.041 48.0091V40.835H131.724C131.285 40.835 130.919 40.5005 130.919 40.0544V40.0172C130.919 39.757 131.065 39.4968 131.285 39.311L134.54 36.0771C134.723 35.8912 134.943 35.7797 135.199 35.7425C135.638 35.7425 136.04 36.1142 136.04 36.5603V36.5975V38.1587H138.381C139.113 38.1587 139.698 38.7534 139.698 39.4968C139.698 40.2403 139.113 40.835 138.381 40.835H136.04V47.8232C136.04 48.8268 136.552 48.9012 137.247 48.9012C137.54 48.9012 137.833 48.864 138.089 48.7897C138.272 48.7153 138.491 48.7153 138.674 48.6781C139.332 48.6781 139.881 49.2357 139.918 49.942C139.845 50.4252 139.515 50.9084 139.076 51.0943ZM148.038 48.7897C149.099 48.8268 150.16 48.5666 151.111 48.0834C151.294 47.9719 151.513 47.9347 151.696 47.9347C152.428 47.9347 153.013 48.4923 153.013 49.2357V49.2729C152.977 49.7933 152.684 50.2765 152.209 50.4995C151.184 51.0943 150.087 51.6147 147.819 51.6147C143.722 51.6147 141.235 49.0499 141.235 44.7752C141.235 39.757 144.527 37.9356 147.307 37.9356C151.477 37.9356 153.379 41.3182 153.379 44.4406C153.416 45.2212 152.794 45.8903 152.026 45.9275C151.989 45.9275 151.952 45.9275 151.916 45.9275H144.234C144.636 47.786 145.953 48.7897 148.038 48.7897Z" fill="#21C16C"/>
<path d="M147.38 40.5748C145.77 40.5376 144.417 41.7643 144.271 43.3998H150.526C150.343 41.7643 148.989 40.5376 147.38 40.5748Z" fill="#21C16C"/>
</g>
<defs>
<clipPath id="clip0_115_390">
<rect width="160" height="41" fill="white" transform="translate(0 25)"/>
</clipPath>
</defs>
</svg>
