<svg width="160" height="90" viewBox="0 0 160 90" fill="none" xmlns="http://www.w3.org/2000/svg">
<g clip-path="url(#clip0_115_352)">
<path fill-rule="evenodd" clip-rule="evenodd" d="M42.7564 32.0981L29.1133 57.9584H16.2987L22.0083 47.2408H21.7521C17.0418 53.1696 10.0138 57.0726 0 57.9584V47.3891C0 47.3891 6.40606 47.0223 10.172 43.1832H0V32.0983H11.4322V41.2155L11.6888 41.2145L16.3604 32.0983H25.0064V41.1577L25.263 41.1573L30.1098 32.0981H42.7564Z" fill="#040A1E"/>
<path d="M117.153 55.1042H120.834V34.6125H117.153V55.1042Z" fill="#040A1E"/>
<path fill-rule="evenodd" clip-rule="evenodd" d="M96.8551 54.8947C97.6554 55.2174 98.469 55.3785 99.2963 55.3785C100.663 55.3785 101.886 55.0561 102.965 54.4109C104.044 53.7658 104.88 52.8765 105.473 51.7433C106.067 50.6012 106.363 49.3066 106.363 47.8594C106.363 46.4121 106.058 45.1176 105.446 43.9755C104.835 42.8335 103.985 41.9486 102.897 41.3209C101.809 40.6845 100.573 40.3706 99.1883 40.3793C98.3073 40.3793 97.4621 40.545 96.6529 40.8763C95.8436 41.2076 95.1693 41.6783 94.6298 42.2886C94.5881 42.335 94.5477 42.382 94.5084 42.4294V34.6255H90.813V55.104H94.4815L94.4741 53.191C94.569 53.3037 94.6704 53.4139 94.7782 53.5216C95.3627 54.1058 96.055 54.5635 96.8551 54.8947ZM100.631 51.5863C100.029 51.9437 99.3412 52.1225 98.568 52.1225C97.8037 52.1225 97.1024 51.9394 96.464 51.5732C95.8256 51.1983 95.3176 50.6883 94.94 50.0432C94.5714 49.3981 94.3871 48.6658 94.3871 47.8463C94.3781 47.0268 94.5579 46.2945 94.9265 45.6494C95.3042 44.9955 95.8122 44.4899 96.4505 44.1324C97.0889 43.7663 97.7947 43.5876 98.568 43.5963C99.3412 43.5876 100.029 43.7619 100.631 44.1194C101.243 44.4681 101.71 44.9694 102.034 45.6232C102.367 46.2683 102.533 47.0094 102.533 47.8463C102.533 48.6832 102.367 49.4243 102.034 50.0694C101.71 50.7145 101.243 51.2201 100.631 51.5863Z" fill="#040A1E"/>
<path d="M48.0905 35.8547H52.2984L56.0625 49.1837L60.0668 35.8547H63.5733L67.9161 48.9162L71.5305 35.8547H75.3877L69.6963 55.104H66.0683L61.6524 42.344L57.5987 55.104H53.9302L48.0905 35.8547Z" fill="#040A1E"/>
<path fill-rule="evenodd" clip-rule="evenodd" d="M81.6016 55.4442C80.136 55.4528 78.8144 55.139 77.6364 54.5026C76.4677 53.8575 75.5461 52.9639 74.8717 51.8219C74.2064 50.6797 73.8736 49.3764 73.8736 47.9118C73.8736 46.4909 74.2154 45.2049 74.8987 44.0541C75.5819 42.9034 76.5081 42.0054 77.6769 41.3603C78.8458 40.7152 80.1495 40.3926 81.5881 40.3926C83.2065 40.3926 84.6227 40.7413 85.8364 41.4387C87.0593 42.1362 87.9718 43.1257 88.5742 44.4072C89.1856 45.68 89.4059 47.1403 89.2351 48.7879H77.6827C77.715 49.4444 77.8838 50.0417 78.1895 50.5795C78.5311 51.1723 79.0077 51.6344 79.619 51.9657C80.2304 52.2969 80.9138 52.4625 81.669 52.4625C82.2444 52.4539 82.7794 52.358 83.2739 52.175C83.7684 51.9832 84.1865 51.7259 84.5283 51.4034C84.8788 51.0808 85.1261 50.7147 85.2699 50.305H89.1273C88.8935 51.3075 88.4259 52.2011 87.7246 52.9857C87.0233 53.7615 86.1421 54.3674 85.0812 54.8034C84.0201 55.2392 82.8603 55.4528 81.6016 55.4442ZM78.203 45.1918C77.9874 45.5562 77.8382 45.9485 77.7551 46.3688H85.4129C85.3573 45.8378 85.1883 45.3539 84.9058 44.9172C84.5822 44.4029 84.1416 44.0062 83.5841 43.7272C83.0267 43.4395 82.3973 43.2957 81.696 43.2957C80.9498 43.2957 80.271 43.4613 79.6596 43.7926C79.0481 44.1239 78.5625 44.5903 78.203 45.1918Z" fill="#040A1E"/>
<path d="M109.074 40.6932C109.074 39.5249 109.348 38.4875 109.897 37.5808C110.445 36.6655 111.214 35.9549 112.203 35.4493C113.201 34.9349 114.365 34.6691 115.696 34.6516V37.8293C115.076 37.838 114.545 37.9644 114.105 38.2085C113.673 38.4439 113.34 38.7883 113.107 39.2416C112.891 39.659 112.775 40.1428 112.758 40.6932H115.615V43.7139H112.756V55.104H109.074V43.7139H106.7V40.6932H109.074Z" fill="#040A1E"/>
<path fill-rule="evenodd" clip-rule="evenodd" d="M130.194 55.418C128.693 55.418 127.349 55.0996 126.162 54.4633C124.984 53.8182 124.058 52.9288 123.383 51.7956C122.718 50.6535 122.385 49.3589 122.385 47.9117C122.385 46.4559 122.718 45.1568 123.383 44.0148C124.058 42.864 124.984 41.9704 126.162 41.334C127.349 40.6976 128.693 40.3794 130.194 40.3794C131.705 40.3794 133.053 40.6976 134.24 41.334C135.436 41.9704 136.367 42.8597 137.032 44.0017C137.697 45.1438 138.035 46.4471 138.044 47.9117C138.035 49.3589 137.697 50.6535 137.032 51.7956C136.376 52.9288 135.45 53.8182 134.254 54.4633C133.058 55.0996 131.705 55.418 130.194 55.418ZM130.194 52.1356C130.985 52.1356 131.687 51.9612 132.298 51.6125C132.91 51.2551 133.382 50.7581 133.714 50.1217C134.047 49.4766 134.213 48.74 134.213 47.9117C134.213 47.0748 134.047 46.3338 133.714 45.6886C133.382 45.0435 132.91 44.5466 132.298 44.1979C131.687 43.8404 130.985 43.6617 130.194 43.6617C129.412 43.6617 128.715 43.8404 128.104 44.1979C127.501 44.5466 127.034 45.0435 126.701 45.6886C126.368 46.3338 126.207 47.0748 126.216 47.9117C126.216 48.74 126.382 49.4766 126.715 50.1217C127.056 50.7581 127.524 51.2551 128.117 51.6125C128.72 51.9612 129.412 52.1356 130.194 52.1356Z" fill="#040A1E"/>
<path d="M142.022 40.6934H137.922L142.359 55.1042H145.947L148.865 45.9L152.016 55.1042H155.55L160 40.6934H156.292L153.767 49.6632L150.978 40.6934H147.39L144.613 49.8608L142.022 40.6934Z" fill="#040A1E"/>
</g>
<defs>
<clipPath id="clip0_115_352">
<rect width="160" height="26" fill="white" transform="translate(0 32)"/>
</clipPath>
</defs>
</svg>
