<svg width="160" height="90" viewBox="0 0 160 90" fill="none" xmlns="http://www.w3.org/2000/svg">
<g clip-path="url(#clip0_115_454)">
<path fill-rule="evenodd" clip-rule="evenodd" d="M42.7564 32.1021L29.1133 58.9569H16.2987L22.0083 47.8271H21.7521C17.0418 53.984 10.0138 58.0371 0 58.9569V47.9812C0 47.9812 6.40606 47.6002 10.172 43.6135H0V32.1023H11.4322V41.57L11.6888 41.569L16.3604 32.1023H25.0064V41.51L25.263 41.5096L30.1098 32.1021H42.7564Z" fill="#146EF5"/>
<path d="M117.153 55.9926H120.834V34.7129H117.153V55.9926Z" fill="#080808"/>
<path fill-rule="evenodd" clip-rule="evenodd" d="M96.8551 55.7754C97.6554 56.1104 98.469 56.2778 99.2963 56.2778C100.663 56.2778 101.886 55.9429 102.965 55.273C104.044 54.6031 104.88 53.6795 105.473 52.5027C106.067 51.3167 106.363 49.9723 106.363 48.4694C106.363 46.9665 106.058 45.6222 105.446 44.4362C104.835 43.2502 103.985 42.3313 102.897 41.6795C101.809 41.0186 100.573 40.6927 99.1883 40.7017C98.3073 40.7017 97.4621 40.8737 96.6529 41.2178C95.8436 41.5618 95.1693 42.0507 94.6298 42.6844C94.5881 42.7326 94.5477 42.7814 94.5084 42.8306V34.7266H90.813V55.9927H94.4815L94.4741 54.0061C94.569 54.1232 94.6704 54.2376 94.7782 54.3495C95.3627 54.9562 96.055 55.4314 96.8551 55.7754ZM100.631 52.3397C100.029 52.7108 99.3412 52.8965 98.568 52.8965C97.8037 52.8965 97.1024 52.7064 96.464 52.3261C95.8256 51.9368 95.3176 51.4072 94.94 50.7373C94.5714 50.0674 94.3871 49.3069 94.3871 48.4559C94.3781 47.6048 94.5579 46.8444 94.9265 46.1744C95.3042 45.4954 95.8122 44.9703 96.4505 44.5992C97.0889 44.2189 97.7947 44.0333 98.568 44.0424C99.3412 44.0333 100.029 44.2144 100.631 44.5856C101.243 44.9477 101.71 45.4683 102.034 46.1473C102.367 46.8172 102.533 47.5868 102.533 48.4559C102.533 49.3249 102.367 50.0945 102.034 50.7644C101.71 51.4344 101.243 51.9595 100.631 52.3397Z" fill="#080808"/>
<path d="M48.0905 36.0029H52.2984L56.0625 49.8445L60.0668 36.0029H63.5733L67.9161 49.5667L71.5305 36.0029H75.3877L69.6963 55.9926H66.0683L61.6524 42.7418L57.5987 55.9926H53.9302L48.0905 36.0029Z" fill="#080808"/>
<path fill-rule="evenodd" clip-rule="evenodd" d="M81.6016 56.3459C80.136 56.3548 78.8144 56.0289 77.6364 55.3681C76.4677 54.6981 75.5461 53.7701 74.8717 52.5842C74.2064 51.3982 73.8736 50.0447 73.8736 48.5238C73.8736 47.0482 74.2154 45.7127 74.8987 44.5177C75.5819 43.3227 76.5081 42.3902 77.6769 41.7203C78.8458 41.0503 80.1495 40.7153 81.5881 40.7153C83.2065 40.7153 84.6227 41.0775 85.8364 41.8017C87.0593 42.526 87.9718 43.5535 88.5742 44.8844C89.1856 46.2061 89.4059 47.7226 89.2351 49.4336H77.6827C77.715 50.1153 77.8838 50.7355 78.1895 51.294C78.5311 51.9097 79.0077 52.3895 79.619 52.7335C80.2304 53.0775 80.9138 53.2495 81.669 53.2495C82.2444 53.2406 82.7794 53.1409 83.2739 52.9509C83.7684 52.7517 84.1865 52.4846 84.5283 52.1497C84.8788 51.8146 85.1261 51.4344 85.2699 51.009H89.1273C88.8935 52.05 88.4259 52.978 87.7246 53.7928C87.0233 54.5985 86.1421 55.2277 85.0812 55.6804C84.0201 56.133 82.8603 56.3548 81.6016 56.3459ZM78.203 45.6992C77.9874 46.0775 77.8382 46.4849 77.7551 46.9214H85.4129C85.3573 46.37 85.1883 45.8675 84.9058 45.414C84.5822 44.8799 84.1416 44.4679 83.5841 44.1782C83.0267 43.8795 82.3973 43.7301 81.696 43.7301C80.9498 43.7301 80.271 43.9021 79.6596 44.2461C79.0481 44.5901 78.5625 45.0745 78.203 45.6992Z" fill="#080808"/>
<path d="M109.074 41.0276C109.074 39.8144 109.348 38.7371 109.897 37.7956C110.445 36.845 111.214 36.1071 112.203 35.582C113.201 35.0479 114.365 34.7718 115.696 34.7537V38.0536C115.076 38.0626 114.545 38.1939 114.105 38.4474C113.673 38.6918 113.34 39.0494 113.107 39.5202C112.891 39.9536 112.775 40.4561 112.758 41.0276H115.615V44.1645H112.756V55.9927H109.074V44.1645H106.7V41.0276H109.074Z" fill="#080808"/>
<path fill-rule="evenodd" clip-rule="evenodd" d="M130.194 56.3186C128.693 56.3186 127.349 55.9881 126.162 55.3272C124.984 54.6573 124.058 53.7338 123.383 52.557C122.718 51.3709 122.385 50.0266 122.385 48.5237C122.385 47.0118 122.718 45.6629 123.383 44.4769C124.058 43.2818 124.984 42.3539 126.162 41.693C127.349 41.0321 128.693 40.7017 130.194 40.7017C131.705 40.7017 133.053 41.0321 134.24 41.693C135.436 42.3539 136.367 43.2773 137.032 44.4633C137.697 45.6493 138.035 47.0027 138.044 48.5237C138.035 50.0266 137.697 51.3709 137.032 52.557C136.376 53.7338 135.45 54.6573 134.254 55.3272C133.058 55.9881 131.705 56.3186 130.194 56.3186ZM130.194 52.9101C130.985 52.9101 131.687 52.729 132.298 52.3668C132.91 51.9956 133.382 51.4795 133.714 50.8187C134.047 50.1488 134.213 49.3838 134.213 48.5237C134.213 47.6546 134.047 46.885 133.714 46.2151C133.382 45.5452 132.91 45.0291 132.298 44.667C131.687 44.2958 130.985 44.1102 130.194 44.1102C129.412 44.1102 128.715 44.2958 128.104 44.667C127.501 45.0291 127.034 45.5452 126.701 46.2151C126.368 46.885 126.207 47.6546 126.216 48.5237C126.216 49.3838 126.382 50.1488 126.715 50.8187C127.056 51.4795 127.524 51.9956 128.117 52.3668C128.72 52.729 129.412 52.9101 130.194 52.9101Z" fill="#080808"/>
<path d="M142.022 41.0276H137.922L142.359 55.9927H145.947L148.865 46.4345L152.016 55.9927H155.55L160 41.0276H156.292L153.767 50.3424L150.978 41.0276H147.39L144.613 50.5476L142.022 41.0276Z" fill="#080808"/>
</g>
<defs>
<clipPath id="clip0_115_454">
<rect width="160" height="27" fill="white" transform="translate(0 32)"/>
</clipPath>
</defs>
</svg>
