<svg width="160" height="90" viewBox="0 0 160 90" fill="none" xmlns="http://www.w3.org/2000/svg">
<g clip-path="url(#clip0_115_355)">
<path d="M37.5725 53.0377L37.5501 52.9655L51.7763 39.798V33.4536H28.9526V39.798H42.5853L42.6077 39.8588L28.5205 53.0377V59.3822H52.0055V53.0377H37.5725Z" fill="#040A1E"/>
<path d="M66.0147 32.8494C63.3821 32.8494 61.2365 33.2508 59.5779 34.0537C58.0333 34.7534 56.7318 35.9062 55.8429 37.3626C54.9926 38.8286 54.4586 40.4599 54.2762 42.1494L61.2013 43.1334C61.4518 41.6416 61.953 40.5842 62.7043 39.9612C63.5587 39.3095 64.6115 38.9803 65.6803 39.0304C67.0858 39.0304 68.1053 39.4103 68.7392 40.1701C69.3667 40.9299 69.6861 41.9823 69.6861 43.3689V44.0603H63.0275C59.6381 44.0603 57.2032 44.8201 55.7229 46.3398C54.2422 47.8594 53.5034 49.8653 53.5059 52.3575C53.5059 54.9104 54.2448 56.81 55.7229 58.0559C57.2006 59.3022 59.0595 59.9214 61.2992 59.9136C64.0771 59.9136 66.2141 58.9476 67.7094 57.0151C68.5926 55.8275 69.2234 54.4682 69.5619 53.0223H69.8138L70.7683 59.3665H77.0435V43.3006C77.0435 39.9802 76.1779 37.4083 74.4471 35.5847C72.7159 33.7612 69.9053 32.8494 66.0147 32.8494ZM68.2093 52.6538C67.2135 53.4934 65.9098 53.9113 64.2864 53.9113C62.9485 53.9113 62.0192 53.6745 61.4983 53.2009C61.2445 52.9768 61.0422 52.6989 60.9066 52.387C60.7709 52.0752 60.7046 51.7369 60.713 51.3963C60.6979 51.0751 60.7482 50.7541 60.8598 50.4531C60.9715 50.152 61.1427 49.877 61.3629 49.6449C61.601 49.4192 61.8819 49.2445 62.1888 49.1316C62.4957 49.0186 62.8218 48.9696 63.1479 48.9877H69.6973V49.4246C69.7107 50.0421 69.5834 50.6545 69.3254 51.2144C69.0672 51.7743 68.6855 52.2668 68.2093 52.6538Z" fill="#040A1E"/>
<path d="M114.985 33.4536H107.572V59.3858H114.985V33.4536Z" fill="#040A1E"/>
<path d="M158.755 33.4536C156.661 33.4536 155.01 34.2007 153.803 35.6951C152.936 36.7689 152.277 38.3557 151.826 40.4552H151.608L150.639 33.4536H144.307V59.3822H151.721V46.0854C151.721 44.4088 152.109 43.1235 152.886 42.2294C153.662 41.3354 155.095 40.8884 157.184 40.8884H159.999V33.4536H158.755Z" fill="#040A1E"/>
<path d="M136.957 34.3013C135.226 33.2603 133.043 32.7411 130.408 32.7437C126.26 32.7437 123.013 33.9378 120.668 36.3262C118.323 38.7145 117.151 42.007 117.151 46.2037C117.091 48.7409 117.639 51.2551 118.748 53.532C119.763 55.561 121.344 57.245 123.295 58.3757C125.259 59.5233 127.595 60.0982 130.302 60.1004C132.645 60.1004 134.601 59.7358 136.172 59.0066C137.649 58.3514 138.934 57.3246 139.907 56.0243C140.833 54.7476 141.521 53.3108 141.936 51.7845L135.548 49.9761C135.279 50.9687 134.762 51.8742 134.045 52.605C133.324 53.3345 132.115 53.6992 130.419 53.6992C128.403 53.6992 126.9 53.1154 125.91 51.9478C125.192 51.1044 124.741 49.9001 124.542 48.3387H142.034C142.105 47.6093 142.143 46.9977 142.143 46.5038V44.8892C142.185 42.7201 141.742 40.5695 140.846 38.598C140.008 36.802 138.652 35.3043 136.957 34.3013ZM130.194 38.9247C133.2 38.9247 134.904 40.4202 135.308 43.4114H124.674C124.843 42.4133 125.252 41.4726 125.865 40.6723C126.839 39.5047 128.282 38.9222 130.194 38.9247Z" fill="#040A1E"/>
<path d="M111.358 23.0024C110.8 22.9833 110.244 23.0776 109.723 23.2799C109.202 23.4822 108.727 23.7884 108.325 24.1801C107.93 24.5756 107.619 25.05 107.414 25.5732C107.209 26.0964 107.114 26.6569 107.134 27.2193C107.114 27.7853 107.21 28.3494 107.415 28.8764C107.62 29.4035 107.931 29.8821 108.327 30.2824C108.724 30.6827 109.197 30.9961 109.718 31.2031C110.24 31.4101 110.798 31.5063 111.358 31.4856C111.914 31.5069 112.469 31.4107 112.986 31.2034C113.504 30.9961 113.973 30.682 114.364 30.2813C114.752 29.8764 115.054 29.3965 115.254 28.8702C115.453 28.344 115.546 27.7825 115.525 27.2193C115.55 26.6595 115.46 26.1004 115.26 25.5777C115.06 25.0551 114.755 24.5804 114.363 24.1839C113.971 23.7875 113.502 23.478 112.985 23.2752C112.468 23.0724 111.915 22.9808 111.362 23.0062L111.358 23.0024Z" fill="#040A1E"/>
<path d="M96.0448 32.7437C93.52 32.7437 91.4909 33.5452 89.9578 35.1484C88.8227 36.3363 87.9901 38.1092 87.4589 40.4671H87.2221L86.2528 33.4654H79.921V66.8363H87.3347V53.0913H87.6054C87.8317 54.0078 88.1488 54.8988 88.5523 55.7506C89.1795 57.1382 90.208 58.3013 91.5021 59.0862C92.8438 59.8264 94.3552 60.1949 95.8832 60.1538C98.9872 60.1538 101.351 58.9318 102.974 56.4876C104.597 54.0436 105.409 50.6333 105.409 46.2569C105.409 42.0298 104.624 38.7208 103.053 36.3299C101.482 33.9391 99.1462 32.7437 96.0448 32.7437ZM96.7965 51.5337C95.9322 52.8001 94.5795 53.4332 92.7382 53.4332C91.9792 53.4687 91.2224 53.3207 90.5312 53.0016C89.8397 52.6825 89.2336 52.2015 88.7629 51.5983C87.8032 50.3801 87.3248 48.7123 87.3274 46.595V46.1011C87.3274 43.9508 87.8058 42.3046 88.7629 41.1623C89.7197 40.0201 91.0448 39.4553 92.7382 39.468C94.6122 39.468 95.9734 40.0695 96.8227 41.2725C97.672 42.4755 98.0966 44.1534 98.0966 46.3062C98.1018 48.5324 97.6707 50.2749 96.8038 51.5337H96.7965Z" fill="#040A1E"/>
<path d="M25.6494 53.0376H0V59.3897H25.6494V53.0376Z" fill="#040A1E"/>
</g>
<defs>
<clipPath id="clip0_115_355">
<rect width="160" height="44" fill="white" transform="translate(0 23)"/>
</clipPath>
</defs>
</svg>
