<svg width="32" height="32" viewBox="0 0 32 32" fill="none" xmlns="http://www.w3.org/2000/svg">
<g clip-path="url(#clip0_16_4)">
<path d="M16.0036 7.7956C14.9255 7.79279 13.8573 8.0024 12.8602 8.41247C11.8631 8.82254 10.9565 9.42504 10.1922 10.1856C8.64852 11.7215 7.77813 13.8079 7.77245 15.9857C7.76677 18.1636 8.62627 20.2544 10.1619 21.7984C11.6975 23.3424 13.7834 24.213 15.9607 24.2187C18.1381 24.2244 20.2285 23.3647 21.7721 21.8287C23.3158 20.2928 24.1862 18.2064 24.1919 16.0286C24.1975 13.8507 23.338 11.7598 21.8024 10.2159C20.2668 8.67188 18.1809 7.80129 16.0036 7.7956ZM15.9607 10.6804C16.6601 10.6775 17.3532 10.8125 18.0004 11.0776C18.6476 11.3427 19.2363 11.7327 19.7328 12.2254C20.2293 12.718 20.6239 13.3037 20.8942 13.9489C21.1644 14.5941 21.3049 15.2862 21.3078 15.9857C21.3106 16.6852 21.1756 17.3785 20.9106 18.0258C20.6455 18.6732 20.2556 19.262 19.7631 19.7586C19.2705 20.2552 18.685 20.65 18.04 20.9203C17.3949 21.1905 16.7029 21.3311 16.0036 21.3339C15.3042 21.3367 14.6111 21.2017 13.9639 20.9366C13.3167 20.6716 12.728 20.2815 12.2315 19.7889C11.735 19.2962 11.3404 18.7106 11.0701 18.0654C10.7999 17.4202 10.6594 16.7281 10.6566 16.0286C10.6537 15.329 10.7887 14.6358 11.0537 13.9885C11.3188 13.3411 11.7087 12.7523 12.2012 12.2557C12.6938 11.7591 13.2793 11.3643 13.9243 11.094C14.5694 10.8237 15.2614 10.6832 15.9607 10.6804ZM22.6284 7.46C22.6284 6.95247 22.83 6.46573 23.1888 6.10685C23.5476 5.74797 24.0342 5.54636 24.5417 5.54636C25.0491 5.54636 25.5357 5.74797 25.8945 6.10685C26.2533 6.46573 26.4549 6.95247 26.4549 7.46C26.4549 7.96753 26.2533 8.45428 25.8945 8.81315C25.5357 9.17203 25.0491 9.37365 24.5417 9.37365C24.0342 9.37365 23.5476 9.17203 23.1888 8.81315C22.83 8.45428 22.6284 7.96753 22.6284 7.46ZM31.8876 9.40221C31.7662 6.83878 31.1808 4.56811 29.3033 2.69731C27.4329 0.826509 25.1627 0.240991 22.5999 0.112462C19.9585 -0.0374874 12.0415 -0.0374874 9.40011 0.112462C6.8444 0.23385 4.57423 0.819368 2.69671 2.69017C0.819186 4.56097 0.240937 6.83164 0.112437 9.39507C-0.0374791 12.037 -0.0374791 19.9558 0.112437 22.5978C0.233798 25.1612 0.819186 27.4319 2.69671 29.3027C4.57423 31.1735 6.83726 31.759 9.40011 31.8875C12.0415 32.0375 19.9585 32.0375 22.5999 31.8875C25.1627 31.7661 27.4329 31.1806 29.3033 29.3027C31.1737 27.4319 31.7591 25.1612 31.8876 22.5978C32.0375 19.9558 32.0375 12.0442 31.8876 9.40221ZM28.4752 25.4326C27.9184 26.8321 26.8404 27.9103 25.434 28.4744C23.3281 29.3098 18.3308 29.117 16.0036 29.117C13.6763 29.117 8.67195 29.3027 6.57312 28.4744C5.1739 27.9174 4.09593 26.8392 3.53196 25.4326C2.69671 23.3261 2.88946 18.3278 2.88946 16C2.88946 13.6722 2.70385 8.66674 3.53196 6.56744C4.08879 5.16791 5.16676 4.0897 6.57312 3.52561C8.67909 2.69017 13.6763 2.88296 16.0036 2.88296C18.3308 2.88296 23.3352 2.69731 25.434 3.52561C26.8332 4.08256 27.9112 5.16077 28.4752 6.56744C29.3104 8.67388 29.1177 13.6722 29.1177 16C29.1177 18.3278 29.3104 23.3333 28.4752 25.4326Z" fill="#040A1E"/>
</g>
<defs>
<clipPath id="clip0_16_4">
<rect width="32" height="32" fill="white"/>
</clipPath>
</defs>
</svg>
