<svg width="32" height="32" viewBox="0 0 32 32" fill="none" xmlns="http://www.w3.org/2000/svg">
<g clip-path="url(#clip0_17_21)">
<path d="M4.57143 0C2.05 0 0 2.05 0 4.57143V27.4286C0 29.95 2.05 32 4.57143 32H27.4286C29.95 32 32 29.95 32 27.4286V4.57143C32 2.05 29.95 0 27.4286 0H4.57143ZM4.92857 12.1571H9.67857V27.4286H4.92857V12.1571ZM10.05 7.32143C10.05 8.05077 9.76027 8.75025 9.24454 9.26597C8.72882 9.7817 8.02935 10.0714 7.3 10.0714C6.57065 10.0714 5.87118 9.7817 5.35546 9.26597C4.83973 8.75025 4.55 8.05077 4.55 7.32143C4.55 6.59208 4.83973 5.89261 5.35546 5.37689C5.87118 4.86116 6.57065 4.57143 7.3 4.57143C8.02935 4.57143 8.72882 4.86116 9.24454 5.37689C9.76027 5.89261 10.05 6.59208 10.05 7.32143ZM22.7071 27.4286V20C22.7071 18.2286 22.6714 15.95 20.2429 15.95C17.7714 15.95 17.3929 17.8786 17.3929 19.8714V27.4286H12.65V12.1571H17.2V14.2429H17.2643C17.9 13.0429 19.45 11.7786 21.7571 11.7786C26.5571 11.7786 27.45 14.9429 27.45 19.0571V27.4286H22.7071Z" fill="#040A1E"/>
</g>
<defs>
<clipPath id="clip0_17_21">
<rect width="32" height="32" fill="white"/>
</clipPath>
</defs>
</svg>
